<svg id="visual" viewBox="0 0 900 600" width="900" height="600" xmlns="http://www.w3.org/2000/svg" xmlns:xlink="http://www.w3.org/1999/xlink" version="1.1"><g stroke-width="1" stroke-linejoin="bevel"><path d="M447.1 309L474.9 334L482.9 303Z" fill="#0080a0" stroke="#0080a0"></path><path d="M482.9 303L452.9 233L447.1 309Z" fill="#00958d" stroke="#00958d"></path><path d="M599.7 332L543.7 264L482.9 303Z" fill="#269d80" stroke="#269d80"></path><path d="M482.9 303L543.7 264L452.9 233Z" fill="#0080a0" stroke="#0080a0"></path><path d="M381.1 237L391.1 384L447.1 309Z" fill="#008b99" stroke="#008b99"></path><path d="M447.1 309L391.1 384L474.9 334Z" fill="#269d80" stroke="#269d80"></path><path d="M391.1 384L423.1 421L474.9 334Z" fill="#2f2a7c" stroke="#2f2a7c"></path><path d="M474.9 334L599.7 332L482.9 303Z" fill="#00958d" stroke="#00958d"></path><path d="M452.9 233L381.1 237L447.1 309Z" fill="#00958d" stroke="#00958d"></path><path d="M295.3 273L366.3 394L391.1 384Z" fill="#008b99" stroke="#008b99"></path><path d="M391.1 384L367.3 409L423.1 421Z" fill="#203b88" stroke="#203b88"></path><path d="M423.1 421L530.9 432L474.9 334Z" fill="#0080a0" stroke="#0080a0"></path><path d="M598.7 390L599.7 332L474.9 334Z" fill="#2f2a7c" stroke="#2f2a7c"></path><path d="M366.3 394L367.3 409L391.1 384Z" fill="#005999" stroke="#005999"></path><path d="M619.5 228L527.9 177L543.7 264Z" fill="#00679e" stroke="#00679e"></path><path d="M543.7 264L527.9 177L452.9 233Z" fill="#005999" stroke="#005999"></path><path d="M350.3 190L337.3 210L381.1 237Z" fill="#203b88" stroke="#203b88"></path><path d="M530.9 432L598.7 390L474.9 334Z" fill="#3a156d" stroke="#3a156d"></path><path d="M641.5 353L621.5 329L599.7 332Z" fill="#0b4b92" stroke="#0b4b92"></path><path d="M599.7 332L619.5 228L543.7 264Z" fill="#005999" stroke="#005999"></path><path d="M350.3 190L381.1 237L403.1 134Z" fill="#0b4b92" stroke="#0b4b92"></path><path d="M381.1 237L295.3 273L391.1 384Z" fill="#2f2a7c" stroke="#2f2a7c"></path><path d="M366.3 394L265.5 340L367.3 409Z" fill="#005999" stroke="#005999"></path><path d="M403.1 134L381.1 237L452.9 233Z" fill="#005999" stroke="#005999"></path><path d="M621.5 329L619.5 228L599.7 332Z" fill="#00679e" stroke="#00679e"></path><path d="M275.5 225L295.3 273L337.3 210Z" fill="#0b4b92" stroke="#0b4b92"></path><path d="M337.3 210L295.3 273L381.1 237Z" fill="#0074a2" stroke="#0074a2"></path><path d="M598.7 390L641.5 353L599.7 332Z" fill="#2f2a7c" stroke="#2f2a7c"></path><path d="M621.5 329L697.4 330L619.5 228Z" fill="#0080a0" stroke="#0080a0"></path><path d="M423.1 421L500.9 494L530.9 432Z" fill="#0b4b92" stroke="#0b4b92"></path><path d="M530.9 432L559.7 475L598.7 390Z" fill="#0074a2" stroke="#0074a2"></path><path d="M598.7 390L696.4 378L641.5 353Z" fill="#00958d" stroke="#00958d"></path><path d="M370.1 523L500.9 494L423.1 421Z" fill="#203b88" stroke="#203b88"></path><path d="M500.9 494L559.7 475L530.9 432Z" fill="#0b4b92" stroke="#0b4b92"></path><path d="M527.9 177L403.1 134L452.9 233Z" fill="#203b88" stroke="#203b88"></path><path d="M295.3 273L265.5 340L366.3 394Z" fill="#0074a2" stroke="#0074a2"></path><path d="M350.3 190L275.5 225L337.3 210Z" fill="#00958d" stroke="#00958d"></path><path d="M295.3 273L203.6 269L265.5 340Z" fill="#269d80" stroke="#269d80"></path><path d="M219.5 183L275.5 225L350.3 190Z" fill="#005999" stroke="#005999"></path><path d="M546.7 71L499.9 103L527.9 177Z" fill="#00958d" stroke="#00958d"></path><path d="M527.9 177L499.9 103L403.1 134Z" fill="#0074a2" stroke="#0074a2"></path><path d="M470.9 600L531.7 534L500.9 494Z" fill="#00958d" stroke="#00958d"></path><path d="M500.9 494L531.7 534L559.7 475Z" fill="#0080a0" stroke="#0080a0"></path><path d="M696.4 378L697.4 330L641.5 353Z" fill="#005999" stroke="#005999"></path><path d="M370.1 523L423.1 421L367.3 409Z" fill="#269d80" stroke="#269d80"></path><path d="M298.3 535L370.1 523L367.3 409Z" fill="#005999" stroke="#005999"></path><path d="M619.5 228L610.7 136L527.9 177Z" fill="#0b4b92" stroke="#0b4b92"></path><path d="M656.5 123L610.7 136L619.5 228Z" fill="#0b4b92" stroke="#0b4b92"></path><path d="M696.4 378L598.7 390L664.5 489Z" fill="#00958d" stroke="#00958d"></path><path d="M641.5 353L697.4 330L621.5 329Z" fill="#0074a2" stroke="#0074a2"></path><path d="M664.5 489L598.7 390L559.7 475Z" fill="#269d80" stroke="#269d80"></path><path d="M499.9 103L400.1 74L403.1 134Z" fill="#3a156d" stroke="#3a156d"></path><path d="M403.1 134L283.5 67L350.3 190Z" fill="#0b4b92" stroke="#0b4b92"></path><path d="M713.4 182L700.4 213L794.2 238Z" fill="#008b99" stroke="#008b99"></path><path d="M697.4 330L700.4 213L619.5 228Z" fill="#269d80" stroke="#269d80"></path><path d="M610.7 136L546.7 71L527.9 177Z" fill="#00958d" stroke="#00958d"></path><path d="M499.9 103L447.1 0L400.1 74Z" fill="#00679e" stroke="#00679e"></path><path d="M665.5 60L546.7 71L610.7 136Z" fill="#005999" stroke="#005999"></path><path d="M203.6 269L209.5 368L265.5 340Z" fill="#203b88" stroke="#203b88"></path><path d="M265.5 340L248.5 467L367.3 409Z" fill="#2f2a7c" stroke="#2f2a7c"></path><path d="M648.5 519L664.5 489L559.7 475Z" fill="#00958d" stroke="#00958d"></path><path d="M209.5 368L248.5 467L265.5 340Z" fill="#005999" stroke="#005999"></path><path d="M219.5 183L203.6 269L275.5 225Z" fill="#00958d" stroke="#00958d"></path><path d="M275.5 225L203.6 269L295.3 273Z" fill="#0080a0" stroke="#0080a0"></path><path d="M700.4 213L656.5 123L619.5 228Z" fill="#2f2a7c" stroke="#2f2a7c"></path><path d="M531.7 534L648.5 519L559.7 475Z" fill="#3a156d" stroke="#3a156d"></path><path d="M248.5 467L298.3 535L367.3 409Z" fill="#0080a0" stroke="#0080a0"></path><path d="M370.1 523L470.9 600L500.9 494Z" fill="#00679e" stroke="#00679e"></path><path d="M283.5 67L219.5 183L350.3 190Z" fill="#008b99" stroke="#008b99"></path><path d="M794.2 238L700.4 213L697.4 330Z" fill="#005999" stroke="#005999"></path><path d="M700.4 213L713.4 182L656.5 123Z" fill="#008b99" stroke="#008b99"></path><path d="M387.1 600L470.9 600L370.1 523Z" fill="#005999" stroke="#005999"></path><path d="M531.7 534L577.7 600L648.5 519Z" fill="#203b88" stroke="#203b88"></path><path d="M248.5 467L248.5 501L298.3 535Z" fill="#00679e" stroke="#00679e"></path><path d="M192.6 502L248.5 501L248.5 467Z" fill="#203b88" stroke="#203b88"></path><path d="M664.5 489L741.4 415L696.4 378Z" fill="#00958d" stroke="#00958d"></path><path d="M696.4 378L781.2 407L697.4 330Z" fill="#3a156d" stroke="#3a156d"></path><path d="M781.2 407L741.4 415L803.2 534Z" fill="#0074a2" stroke="#0074a2"></path><path d="M322.3 600L387.1 600L370.1 523Z" fill="#3a156d" stroke="#3a156d"></path><path d="M322.3 600L370.1 523L298.3 535Z" fill="#005999" stroke="#005999"></path><path d="M470.9 600L577.7 600L531.7 534Z" fill="#3a156d" stroke="#3a156d"></path><path d="M722.4 535L741.4 415L664.5 489Z" fill="#0080a0" stroke="#0080a0"></path><path d="M329.3 39L403.1 134L400.1 74Z" fill="#005999" stroke="#005999"></path><path d="M329.3 39L283.5 67L403.1 134Z" fill="#00679e" stroke="#00679e"></path><path d="M344.3 0L329.3 39L400.1 74Z" fill="#269d80" stroke="#269d80"></path><path d="M578.7 0L471.9 0L546.7 71Z" fill="#203b88" stroke="#203b88"></path><path d="M546.7 71L471.9 0L499.9 103Z" fill="#008b99" stroke="#008b99"></path><path d="M471.9 0L447.1 0L499.9 103Z" fill="#0074a2" stroke="#0074a2"></path><path d="M228.5 600L322.3 600L298.3 535Z" fill="#00679e" stroke="#00679e"></path><path d="M714.4 62L665.5 60L656.5 123Z" fill="#008b99" stroke="#008b99"></path><path d="M656.5 123L665.5 60L610.7 136Z" fill="#0074a2" stroke="#0074a2"></path><path d="M170.6 165L157.6 207L219.5 183Z" fill="#0b4b92" stroke="#0b4b92"></path><path d="M219.5 183L157.6 207L203.6 269Z" fill="#0b4b92" stroke="#0b4b92"></path><path d="M81.8 369L146.6 415L209.5 368Z" fill="#00679e" stroke="#00679e"></path><path d="M146.6 415L192.6 502L248.5 467Z" fill="#0080a0" stroke="#0080a0"></path><path d="M722.4 535L664.5 489L648.5 519Z" fill="#2f2a7c" stroke="#2f2a7c"></path><path d="M741.4 415L781.2 407L696.4 378Z" fill="#00958d" stroke="#00958d"></path><path d="M146.6 415L248.5 467L209.5 368Z" fill="#00958d" stroke="#00958d"></path><path d="M248.5 501L228.5 600L298.3 535Z" fill="#0080a0" stroke="#0080a0"></path><path d="M163.6 114L170.6 165L219.5 183Z" fill="#0b4b92" stroke="#0b4b92"></path><path d="M665.5 60L578.7 0L546.7 71Z" fill="#00958d" stroke="#00958d"></path><path d="M117.8 249L209.5 368L203.6 269Z" fill="#2f2a7c" stroke="#2f2a7c"></path><path d="M836.2 270L794.2 238L697.4 330Z" fill="#2f2a7c" stroke="#2f2a7c"></path><path d="M713.4 182L714.4 62L656.5 123Z" fill="#00679e" stroke="#00679e"></path><path d="M649.5 600L722.4 535L648.5 519Z" fill="#203b88" stroke="#203b88"></path><path d="M329.3 39L221.5 0L283.5 67Z" fill="#3a156d" stroke="#3a156d"></path><path d="M283.5 67L163.6 114L219.5 183Z" fill="#008b99" stroke="#008b99"></path><path d="M447.1 0L344.3 0L400.1 74Z" fill="#005999" stroke="#005999"></path><path d="M577.7 600L649.5 600L648.5 519Z" fill="#203b88" stroke="#203b88"></path><path d="M790.2 39L714.4 62L713.4 182Z" fill="#00679e" stroke="#00679e"></path><path d="M665.5 60L694.5 0L578.7 0Z" fill="#0074a2" stroke="#0074a2"></path><path d="M104.8 143L117.8 249L157.6 207Z" fill="#00679e" stroke="#00679e"></path><path d="M157.6 207L117.8 249L203.6 269Z" fill="#0074a2" stroke="#0074a2"></path><path d="M81.8 369L124.6 424L146.6 415Z" fill="#00958d" stroke="#00958d"></path><path d="M146.6 415L124.6 424L192.6 502Z" fill="#00958d" stroke="#00958d"></path><path d="M221.5 0L163.6 114L283.5 67Z" fill="#00958d" stroke="#00958d"></path><path d="M170.6 165L104.8 143L157.6 207Z" fill="#2f2a7c" stroke="#2f2a7c"></path><path d="M159.6 600L228.5 600L192.6 502Z" fill="#005999" stroke="#005999"></path><path d="M192.6 502L228.5 600L248.5 501Z" fill="#00958d" stroke="#00958d"></path><path d="M781.2 407L836.2 270L697.4 330Z" fill="#203b88" stroke="#203b88"></path><path d="M794.2 238L857.2 176L713.4 182Z" fill="#008b99" stroke="#008b99"></path><path d="M117.8 249L81.8 369L209.5 368Z" fill="#269d80" stroke="#269d80"></path><path d="M124.6 424L87.8 553L192.6 502Z" fill="#269d80" stroke="#269d80"></path><path d="M770.4 0L694.5 0L714.4 62Z" fill="#0074a2" stroke="#0074a2"></path><path d="M714.4 62L694.5 0L665.5 60Z" fill="#008b99" stroke="#008b99"></path><path d="M803.2 534L842.2 422L781.2 407Z" fill="#005999" stroke="#005999"></path><path d="M781.2 407L900 353L836.2 270Z" fill="#203b88" stroke="#203b88"></path><path d="M81.8 369L89.8 420L124.6 424Z" fill="#00679e" stroke="#00679e"></path><path d="M344.3 0L221.5 0L329.3 39Z" fill="#00958d" stroke="#00958d"></path><path d="M163.6 114L104.8 143L170.6 165Z" fill="#3a156d" stroke="#3a156d"></path><path d="M117.8 249L62.8 296L81.8 369Z" fill="#0074a2" stroke="#0074a2"></path><path d="M81.8 93L104.8 143L163.6 114Z" fill="#0074a2" stroke="#0074a2"></path><path d="M763.4 600L803.2 534L722.4 535Z" fill="#0b4b92" stroke="#0b4b92"></path><path d="M722.4 535L803.2 534L741.4 415Z" fill="#0074a2" stroke="#0074a2"></path><path d="M0 269L62.8 296L0 201Z" fill="#0b4b92" stroke="#0b4b92"></path><path d="M0 436L87.8 553L89.8 420Z" fill="#0b4b92" stroke="#0b4b92"></path><path d="M649.5 600L763.4 600L722.4 535Z" fill="#008b99" stroke="#008b99"></path><path d="M900 239L857.2 176L836.2 270Z" fill="#3a156d" stroke="#3a156d"></path><path d="M836.2 270L857.2 176L794.2 238Z" fill="#0074a2" stroke="#0074a2"></path><path d="M221.5 0L191.6 0L163.6 114Z" fill="#269d80" stroke="#269d80"></path><path d="M87.8 553L159.6 600L192.6 502Z" fill="#0074a2" stroke="#0074a2"></path><path d="M857.2 176L790.2 39L713.4 182Z" fill="#0b4b92" stroke="#0b4b92"></path><path d="M900 353L781.2 407L842.2 422Z" fill="#0080a0" stroke="#0080a0"></path><path d="M900 353L900 307L836.2 270Z" fill="#0080a0" stroke="#0080a0"></path><path d="M900 422L900 353L842.2 422Z" fill="#0b4b92" stroke="#0b4b92"></path><path d="M763.4 600L799.2 600L803.2 534Z" fill="#269d80" stroke="#269d80"></path><path d="M900 529L900 422L842.2 422Z" fill="#3a156d" stroke="#3a156d"></path><path d="M790.2 39L770.4 0L714.4 62Z" fill="#269d80" stroke="#269d80"></path><path d="M900 307L900 239L836.2 270Z" fill="#00958d" stroke="#00958d"></path><path d="M857.2 176L900 79L790.2 39Z" fill="#00679e" stroke="#00679e"></path><path d="M790.2 39L814.2 0L770.4 0Z" fill="#005999" stroke="#005999"></path><path d="M191.6 0L81.8 93L163.6 114Z" fill="#3a156d" stroke="#3a156d"></path><path d="M0 201L62.8 296L117.8 249Z" fill="#0b4b92" stroke="#0b4b92"></path><path d="M900 529L842.2 422L803.2 534Z" fill="#0080a0" stroke="#0080a0"></path><path d="M89.8 420L87.8 553L124.6 424Z" fill="#008b99" stroke="#008b99"></path><path d="M0 436L89.8 420L81.8 369Z" fill="#3a156d" stroke="#3a156d"></path><path d="M900 239L900 176L857.2 176Z" fill="#2f2a7c" stroke="#2f2a7c"></path><path d="M0 269L0 335L62.8 296Z" fill="#008b99" stroke="#008b99"></path><path d="M62.8 296L0 335L81.8 369Z" fill="#00958d" stroke="#00958d"></path><path d="M0 201L117.8 249L104.8 143Z" fill="#0080a0" stroke="#0080a0"></path><path d="M900 79L814.2 0L790.2 39Z" fill="#008b99" stroke="#008b99"></path><path d="M0 600L84.8 600L87.8 553Z" fill="#008b99" stroke="#008b99"></path><path d="M87.8 553L84.8 600L159.6 600Z" fill="#3a156d" stroke="#3a156d"></path><path d="M0 124L0 201L104.8 143Z" fill="#00958d" stroke="#00958d"></path><path d="M0 335L0 436L81.8 369Z" fill="#00679e" stroke="#00679e"></path><path d="M900 600L900 529L803.2 534Z" fill="#2f2a7c" stroke="#2f2a7c"></path><path d="M900 176L900 79L857.2 176Z" fill="#2f2a7c" stroke="#2f2a7c"></path><path d="M81.8 93L0 124L104.8 143Z" fill="#00679e" stroke="#00679e"></path><path d="M0 112L0 124L81.8 93Z" fill="#269d80" stroke="#269d80"></path><path d="M47.8 0L0 112L81.8 93Z" fill="#3a156d" stroke="#3a156d"></path><path d="M799.2 600L900 600L803.2 534Z" fill="#2f2a7c" stroke="#2f2a7c"></path><path d="M0 436L0 547L87.8 553Z" fill="#269d80" stroke="#269d80"></path><path d="M191.6 0L47.8 0L81.8 93Z" fill="#269d80" stroke="#269d80"></path><path d="M900 79L900 0L814.2 0Z" fill="#2f2a7c" stroke="#2f2a7c"></path><path d="M0 547L0 600L87.8 553Z" fill="#00679e" stroke="#00679e"></path><path d="M47.8 0L0 0L0 112Z" fill="#269d80" stroke="#269d80"></path></g></svg>